<svg width="151" height="27" viewBox="0 0 151 27" fill="none" xmlns="http://www.w3.org/2000/svg">
<path d="M33.31 5.6H39.8C41.428 5.6 42.8727 5.92267 44.134 6.568C45.3953 7.21333 46.3707 8.12267 47.06 9.296C47.764 10.4547 48.116 11.7893 48.116 13.3C48.116 14.8107 47.764 16.1527 47.06 17.326C46.3707 18.4847 45.3953 19.3867 44.134 20.032C42.8727 20.6773 41.428 21 39.8 21H33.31V5.6ZM39.668 19.086C40.9147 19.086 42.0073 18.844 42.946 18.36C43.8993 17.876 44.6327 17.2013 45.146 16.336C45.6593 15.456 45.916 14.444 45.916 13.3C45.916 12.156 45.6593 11.1513 45.146 10.286C44.6327 9.406 43.8993 8.724 42.946 8.24C42.0073 7.756 40.9147 7.514 39.668 7.514H35.51V19.086H39.668ZM53.2018 11.298C53.5684 10.6233 54.1111 10.11 54.8298 9.758C55.5484 9.406 56.4211 9.23 57.4478 9.23V11.276C57.3304 11.2613 57.1691 11.254 56.9638 11.254C55.8198 11.254 54.9178 11.5987 54.2578 12.288C53.6124 12.9627 53.2898 13.9307 53.2898 15.192V21H51.1778V9.34H53.2018V11.298ZM70.4814 15.236C70.4814 15.3973 70.4667 15.61 70.4374 15.874H60.9774C61.1094 16.9007 61.5567 17.7293 62.3194 18.36C63.0967 18.976 64.0574 19.284 65.2014 19.284C66.5947 19.284 67.7167 18.8147 68.5674 17.876L69.7334 19.24C69.2054 19.856 68.5454 20.3253 67.7534 20.648C66.9761 20.9707 66.1034 21.132 65.1354 21.132C63.9034 21.132 62.8107 20.8827 61.8574 20.384C60.9041 19.8707 60.1634 19.1593 59.6354 18.25C59.1221 17.3407 58.8654 16.314 58.8654 15.17C58.8654 14.0407 59.1147 13.0213 59.6134 12.112C60.1267 11.2027 60.8234 10.4987 61.7034 10C62.5981 9.48667 63.6027 9.23 64.7174 9.23C65.8321 9.23 66.8221 9.48667 67.6874 10C68.5674 10.4987 69.2494 11.2027 69.7334 12.112C70.2321 13.0213 70.4814 14.0627 70.4814 15.236ZM64.7174 11.012C63.7054 11.012 62.8547 11.32 62.1654 11.936C61.4907 12.552 61.0947 13.3587 60.9774 14.356H68.4574C68.3401 13.3733 67.9367 12.574 67.2474 11.958C66.5727 11.3273 65.7294 11.012 64.7174 11.012ZM77.3378 9.23C78.9512 9.23 80.1832 9.626 81.0338 10.418C81.8992 11.21 82.3318 12.3907 82.3318 13.96V21H80.3298V19.46C79.9778 20.0027 79.4718 20.4207 78.8118 20.714C78.1665 20.9927 77.3965 21.132 76.5018 21.132C75.1965 21.132 74.1478 20.8167 73.3558 20.186C72.5785 19.5553 72.1898 18.7267 72.1898 17.7C72.1898 16.6733 72.5638 15.852 73.3118 15.236C74.0598 14.6053 75.2478 14.29 76.8758 14.29H80.2198V13.872C80.2198 12.9627 79.9558 12.266 79.4278 11.782C78.8998 11.298 78.1225 11.056 77.0958 11.056C76.4065 11.056 75.7318 11.1733 75.0718 11.408C74.4118 11.628 73.8545 11.9287 73.3998 12.31L72.5198 10.726C73.1212 10.242 73.8398 9.87533 74.6758 9.626C75.5118 9.362 76.3992 9.23 77.3378 9.23ZM76.8538 19.504C77.6605 19.504 78.3572 19.328 78.9438 18.976C79.5305 18.6093 79.9558 18.096 80.2198 17.436V15.808H76.9638C75.1745 15.808 74.2798 16.4093 74.2798 17.612C74.2798 18.1987 74.5072 18.6607 74.9618 18.998C75.4165 19.3353 76.0472 19.504 76.8538 19.504ZM100.826 9.23C102.293 9.23 103.452 9.65533 104.302 10.506C105.168 11.3567 105.6 12.618 105.6 14.29V21H103.488V14.532C103.488 13.4027 103.224 12.552 102.696 11.98C102.183 11.408 101.442 11.122 100.474 11.122C99.4036 11.122 98.5529 11.4593 97.9223 12.134C97.2916 12.794 96.9763 13.7473 96.9763 14.994V21H94.8643V14.532C94.8643 13.4027 94.6003 12.552 94.0723 11.98C93.5589 11.408 92.8183 11.122 91.8503 11.122C90.7796 11.122 89.9289 11.4593 89.2983 12.134C88.6676 12.794 88.3523 13.7473 88.3523 14.994V21H86.2403V9.34H88.2643V11.078C88.6896 10.4767 89.2469 10.022 89.9363 9.714C90.6256 9.39133 91.4103 9.23 92.2903 9.23C93.1996 9.23 94.0063 9.41333 94.7103 9.78C95.4143 10.1467 95.9569 10.682 96.3383 11.386C96.7783 10.7113 97.3869 10.1833 98.1643 9.802C98.9563 9.42067 99.8436 9.23 100.826 9.23ZM112.852 7.514H107.572V5.6H120.31V7.514H115.03V21H112.852V7.514ZM124.143 11.298C124.51 10.6233 125.053 10.11 125.771 9.758C126.49 9.406 127.363 9.23 128.389 9.23V11.276C128.272 11.2613 128.111 11.254 127.905 11.254C126.761 11.254 125.859 11.5987 125.199 12.288C124.554 12.9627 124.231 13.9307 124.231 15.192V21H122.119V9.34H124.143V11.298ZM130.992 9.34H133.104V21H130.992V9.34ZM132.048 7.096C131.638 7.096 131.293 6.964 131.014 6.7C130.75 6.436 130.618 6.11333 130.618 5.732C130.618 5.35067 130.75 5.028 131.014 4.764C131.293 4.48533 131.638 4.346 132.048 4.346C132.459 4.346 132.796 4.478 133.06 4.742C133.339 4.99133 133.478 5.30667 133.478 5.688C133.478 6.084 133.339 6.42133 133.06 6.7C132.796 6.964 132.459 7.096 132.048 7.096ZM143.319 9.23C144.448 9.23 145.46 9.47933 146.355 9.978C147.249 10.4767 147.946 11.1733 148.445 12.068C148.958 12.9627 149.215 13.9967 149.215 15.17C149.215 16.3433 148.958 17.3847 148.445 18.294C147.946 19.1887 147.249 19.8853 146.355 20.384C145.46 20.8827 144.448 21.132 143.319 21.132C142.483 21.132 141.713 20.9707 141.009 20.648C140.319 20.3253 139.733 19.856 139.249 19.24V25.268H137.137V9.34H139.161V11.188C139.63 10.5427 140.224 10.0587 140.943 9.736C141.661 9.39867 142.453 9.23 143.319 9.23ZM143.143 19.284C143.891 19.284 144.558 19.1153 145.145 18.778C145.746 18.426 146.215 17.942 146.553 17.326C146.905 16.6953 147.081 15.9767 147.081 15.17C147.081 14.3633 146.905 13.652 146.553 13.036C146.215 12.4053 145.746 11.9213 145.145 11.584C144.558 11.2467 143.891 11.078 143.143 11.078C142.409 11.078 141.742 11.254 141.141 11.606C140.554 11.9433 140.085 12.42 139.733 13.036C139.395 13.652 139.227 14.3633 139.227 15.17C139.227 15.9767 139.395 16.6953 139.733 17.326C140.07 17.942 140.539 18.426 141.141 18.778C141.742 19.1153 142.409 19.284 143.143 19.284Z" fill="white"/>
<path d="M24.7022 5.91669C24.1356 4.93013 22.5976 3.9969 18.505 5.03346C17.0305 3.90807 15.2727 3.21911 13.4298 3.04422C11.5869 2.86932 9.73197 3.21545 8.07413 4.04359C6.41629 4.87172 5.02138 6.14897 4.04658 7.7314C3.07178 9.31384 2.55582 11.1386 2.55685 13C2.55684 13.4177 2.58272 13.8349 2.63434 14.2494C-0.300358 17.2925 -0.265448 19.0973 0.300773 20.0833C0.683329 20.7497 1.5309 21.4154 3.38909 21.4154C4.27835 21.4003 5.1633 21.2874 6.02814 21.0787C6.18502 21.0432 6.34145 21.0056 6.4974 20.9661C7.97187 22.0917 9.72963 22.7807 11.5726 22.9557C13.4156 23.1307 15.2706 22.7847 16.9285 21.9566C18.5864 21.1285 19.9814 19.8512 20.9562 18.2688C21.9311 16.6863 22.4471 14.8615 22.4461 13C22.4461 12.5821 22.4202 12.1646 22.3685 11.7499C22.479 11.6353 22.5881 11.5194 22.6958 11.4021C25.3151 8.54221 25.2326 6.84065 24.702 5.91669H24.7022ZM12.5015 4.66669C14.3838 4.66936 16.2092 5.31531 17.6784 6.49855C19.1476 7.6818 20.1731 9.33206 20.5868 11.1786C18.9143 12.782 16.6784 14.4241 14.1589 15.8868C11.6409 17.3486 9.11024 18.4743 6.89394 19.1292C5.66514 17.9942 4.80587 16.5125 4.42867 14.8782C4.05147 13.2439 4.17394 11.5331 4.78002 9.96991C5.3861 8.40675 6.44755 7.06409 7.82533 6.11781C9.20311 5.17153 10.833 4.66574 12.5015 4.66669V4.66669ZM1.73611 19.25C1.58073 18.9792 1.66795 18.4703 1.97561 17.8538C2.28349 17.2705 2.65677 16.7246 3.08816 16.2268C3.50891 17.4616 4.1659 18.6018 5.02208 19.5829C3.08961 19.9287 1.98514 19.684 1.73621 19.25H1.73611ZM12.5015 21.3333C11.1302 21.3349 9.78022 20.9921 8.57406 20.3361C10.7997 19.5356 12.9468 18.5293 14.9876 17.3301C17.0405 16.1526 18.9804 14.7863 20.7824 13.2488C20.7161 15.4137 19.8148 17.4679 18.2694 18.9767C16.7239 20.4855 14.6555 21.3306 12.5015 21.3333V21.3333ZM19.9808 6.41721C20.6272 6.2899 21.2859 6.23731 21.9441 6.26044C22.6292 6.30075 23.1113 6.47919 23.2668 6.75002C23.5156 7.18336 23.1751 8.26564 21.9146 9.77304C21.4939 8.53829 20.837 7.39826 19.9808 6.41721V6.41721Z" fill="white"/>
</svg>
